<?xml version="1.0" standalone="no"?>
<!DOCTYPE svg PUBLIC "-//W3C//DTD SVG 1.1//EN" "http://www.w3.org/Graphics/SVG/1.1/DTD/svg11.dtd" >
<svg xmlns="http://www.w3.org/2000/svg" xmlns:xlink="http://www.w3.org/1999/xlink" version="1.1">
<metadata>
Created by FontForge 20161003 at Wed Oct 24 08:58:44 2018
 By www-data
Copyright (c) 2012 by abstrkt. All rights reserved.
</metadata>
<defs>
<font id="geometric" horiz-adv-x="770" >
  <font-face 
    font-family="geometric"
    font-weight="400"
    font-stretch="normal"
    units-per-em="1000"
    panose-1="0 0 0 0 0 0 0 0 0 0"
    ascent="750"
    descent="-250"
    x-height="500"
    cap-height="700"
    bbox="-25 -215 1391 925"
    underline-thickness="50"
    underline-position="-150"
    unicode-range="U+0020-2116"
  />
<missing-glyph horiz-adv-x="280" 
 />
    <glyph glyph-name=".notdef" horiz-adv-x="280" 
 />
    <glyph glyph-name=".null" horiz-adv-x="0" 
 />
    <glyph glyph-name="nonmarkingreturn" horiz-adv-x="333" 
 />
    <glyph glyph-name="space" unicode=" " horiz-adv-x="280" 
 />
    <glyph glyph-name="exclam" unicode="!" horiz-adv-x="310" 
d="M225 700v-470h-140v470h140zM70 70q0 35 25 60t60 25t60 -25t25 -60t-25 -60t-60 -25t-60 25t-25 60z" />
    <glyph glyph-name="quotedbl" unicode="&#x22;" horiz-adv-x="520" 
d="M240 700l-30 -270h-110l-30 270h170zM450 700l-30 -270h-110l-30 270h170z" />
    <glyph glyph-name="numbersign" unicode="#" horiz-adv-x="959" 
d="M827 300v-140h-215l-168 -360h-154l168 360h-116l-168 -360h-154l168 360h-150v140h215l47 100h-150v140h215l122 260h154l-122 -260h116l122 260h154l-122 -260h150v-140h-215l-47 -100h150zM454 400l-47 -100h116l47 100h-116z" />
    <glyph glyph-name="dollar" unicode="$" horiz-adv-x="537" 
d="M421 800l-18 -107q52 -29 83 -80.5t31 -112.5h-140q0 33 -23.5 56.5t-56.5 23.5t-56.5 -23.5t-23.5 -56.5q0 -23 18 -42.5t45 -32.5t58.5 -33t58.5 -42t45 -61t18 -89q0 -79 -50 -139.5t-126 -75.5l-30 -185h-154l34 207q-52 28 -83 80t-31 113h140q0 -33 23.5 -56.5
t56.5 -23.5t56.5 23.5t23.5 56.5q0 23 -18 42.5t-45 32.5t-58.5 33t-58.5 42t-45 61t-18 89q0 78 49.5 138.5t125.5 76.5l15 85h154z" />
    <glyph glyph-name="quotesingle" unicode="'" horiz-adv-x="310" 
d="M240 700l-30 -270h-110l-30 270h170z" />
    <glyph glyph-name="parenleft" unicode="(" horiz-adv-x="373" 
d="M200 300q0 -281 173 -500h-171q-142 230 -142 500t142 500h171q-173 -219 -173 -500z" />
    <glyph glyph-name="parenright" unicode=")" horiz-adv-x="373" 
d="M173 300q0 281 -173 500h171q142 -230 142 -500t-142 -500h-171q173 219 173 500z" />
    <glyph glyph-name="asterisk" unicode="*" horiz-adv-x="570" 
d="M93 672l125 -60l-18 138h170l-18 -138l125 60l53 -162l-137 -25l96 -101l-138 -100l-66 122l-66 -122l-138 100l96 101l-137 25z" />
    <glyph glyph-name="plus" unicode="+" 
d="M315 645h140v-225h225v-140h-225v-225h-140v225h-225v140h225v225z" />
    <glyph glyph-name="comma" unicode="," horiz-adv-x="310" 
d="M155 155q37 0 61 -25t24 -70q0 -67 -35.5 -125t-83.5 -85q34 38 34 135q-35 0 -60 25t-25 60t25 60t60 25z" />
    <glyph glyph-name="hyphen" unicode="-" horiz-adv-x="630" 
d="M560 360v-130h-490v130h490z" />
    <glyph glyph-name="period" unicode="." horiz-adv-x="310" 
d="M70 70q0 35 25 60t60 25t60 -25t25 -60t-25 -60t-60 -25t-60 25t-25 60z" />
    <glyph glyph-name="slash" unicode="/" horiz-adv-x="641" 
d="M641 800l-467 -1000h-154l467 1000h154z" />
    <glyph glyph-name="zero" unicode="0" horiz-adv-x="840" 
d="M50 350q0 153 108.5 261.5t261.5 108.5t261.5 -108.5t108.5 -261.5t-108.5 -261.5t-261.5 -108.5t-261.5 108.5t-108.5 261.5zM190 350q0 -95 67.5 -162.5t162.5 -67.5t162.5 67.5t67.5 162.5t-67.5 162.5t-162.5 67.5t-162.5 -67.5t-67.5 -162.5z" />
    <glyph glyph-name="one" unicode="1" horiz-adv-x="480" 
d="M420 0h-360v140h110v360h-110v80q110 17 167 120h83v-560h110v-140z" />
    <glyph glyph-name="two" unicode="2" horiz-adv-x="610" 
d="M70 475q0 101 72 173t173 72t173 -72t72 -173q0 -88 -61 -161l-147 -174h208v-140h-510l200 238q-79 22 -129.5 87.5t-50.5 149.5zM210 475q0 -43 31 -74t74 -31t74 31t31 74t-31 74t-74 31t-74 -31t-31 -74z" />
    <glyph glyph-name="three" unicode="3" horiz-adv-x="520" 
d="M180 500h-140q0 91 64.5 155.5t155.5 64.5t155.5 -64.5t64.5 -155.5q0 -87 -60 -150q60 -65 60 -150q0 -91 -64.5 -155.5t-155.5 -64.5t-155.5 64.5t-64.5 155.5h140q0 -33 23.5 -56.5t56.5 -23.5t56.5 23.5t23.5 56.5t-23.5 56.5t-56.5 23.5h-60v140h60q33 0 56.5 23.5
t23.5 56.5t-23.5 56.5t-56.5 23.5t-56.5 -23.5t-23.5 -56.5z" />
    <glyph glyph-name="four" unicode="4" horiz-adv-x="650" 
d="M397 700h187l-216 -242h122v-148h120v-140h-120v-170h-140v170h-300v140zM236 310h114v128z" />
    <glyph glyph-name="five" unicode="5" horiz-adv-x="570" 
d="M30 225h140q0 -43 31 -74t74 -31t74 31t31 74t-31 74t-74 31q-44 0 -75 -31l-145 71l57 330h388v-140h-271l-17 -98q32 8 63 8q101 0 173 -72t72 -173t-72 -173t-173 -72t-173 72t-72 173z" />
    <glyph glyph-name="six" unicode="6" horiz-adv-x="580" 
d="M90 372l261 328h179l-189 -236q82 -20 135.5 -86.5t53.5 -152.5q0 -101 -72 -173t-173 -72t-173 72t-72 173q0 85 50 147zM390 225q0 43 -31 74t-74 31t-74 -31t-31 -74t31 -74t74 -31t74 31t31 74z" />
    <glyph glyph-name="seven" unicode="7" horiz-adv-x="640" 
d="M590 700v-140l-364 -560h-166l363 560h-363v140h530z" />
    <glyph glyph-name="eight" unicode="8" horiz-adv-x="520" 
d="M260 720q91 0 155.5 -64.5t64.5 -155.5q0 -87 -60 -150q60 -65 60 -150q0 -91 -64.5 -155.5t-155.5 -64.5t-155.5 64.5t-64.5 155.5q0 85 60 150q-60 63 -60 150q0 91 64.5 155.5t155.5 64.5zM260 580q-33 0 -56.5 -23.5t-23.5 -56.5t23.5 -56.5t56.5 -23.5t56.5 23.5
t23.5 56.5t-23.5 56.5t-56.5 23.5zM340 200q0 33 -23.5 56.5t-56.5 23.5t-56.5 -23.5t-23.5 -56.5t23.5 -56.5t56.5 -23.5t56.5 23.5t23.5 56.5z" />
    <glyph glyph-name="nine" unicode="9" horiz-adv-x="580" 
d="M490 328l-261 -328h-179l189 236q-82 20 -135.5 86.5t-53.5 152.5q0 101 72 173t173 72t173 -72t72 -173q0 -85 -50 -147zM190 475q0 -43 31 -74t74 -31t74 31t31 74t-31 74t-74 31t-74 -31t-31 -74z" />
    <glyph glyph-name="colon" unicode=":" horiz-adv-x="310" 
d="M70 160q0 35 25 60t60 25t60 -25t25 -60t-25 -60t-60 -25t-60 25t-25 60zM70 460q0 35 25 60t60 25t60 -25t25 -60t-25 -60t-60 -25t-60 25t-25 60z" />
    <glyph glyph-name="semicolon" unicode=";" horiz-adv-x="310" 
d="M70 370q0 35 25 60t60 25t60 -25t25 -60t-25 -60t-60 -25t-60 25t-25 60zM155 155q37 0 61 -25t24 -70q0 -67 -35.5 -125t-83.5 -85q34 38 34 135q-35 0 -60 25t-25 60t25 60t60 25z" />
    <glyph glyph-name="less" unicode="&#x3c;" horiz-adv-x="507" 
d="M70 350l278 278l99 -99l-179 -179l179 -179l-99 -99z" />
    <glyph glyph-name="equal" unicode="=" 
d="M680 300v-140h-590v140h590zM680 540v-140h-590v140h590z" />
    <glyph glyph-name="greater" unicode="&#x3e;" horiz-adv-x="507" 
d="M159 628l278 -278l-278 -278l-99 99l179 179l-179 179z" />
    <glyph glyph-name="question" unicode="?" horiz-adv-x="520" 
d="M180 500h-140q0 91 64.5 155.5t155.5 64.5t155.5 -64.5t64.5 -155.5q0 -73 -43.5 -131t-111.5 -79v-60h-140v190h75q33 0 56.5 23.5t23.5 56.5t-23.5 56.5t-56.5 23.5t-56.5 -23.5t-23.5 -56.5zM170 70q0 35 25 60t60 25t60 -25t25 -60t-25 -60t-60 -25t-60 25t-25 60z
" />
    <glyph glyph-name="A" unicode="A" horiz-adv-x="724" 
d="M10 0l282 700h140l282 -700h-152l-60 150h-281l-60 -150h-151zM362 499l-84 -209h168z" />
    <glyph glyph-name="B" unicode="B" horiz-adv-x="610" 
d="M355 290h-135v-150h135q31 0 53 22t22 53t-22 53t-53 22zM355 560h-135v-130h135q27 0 46 19t19 46t-19 46t-46 19zM388 0h-308v700h311q70 0 119.5 -49.5t49.5 -119.5q0 -69 -48.5 -117.5t-116.5 -50.5q73 -3 124 -56t51 -126q0 -75 -53.5 -128t-128.5 -53z" />
    <glyph glyph-name="C" unicode="C" horiz-adv-x="731" 
d="M190 350q0 -95 67.5 -162.5t162.5 -67.5t162 67l99 -99q-108 -108 -261 -108t-261.5 108.5t-108.5 261.5t108.5 261.5t261.5 108.5q152 0 261 -109l-99 -99q-66 68 -162 68q-95 0 -162.5 -67.5t-67.5 -162.5z" />
    <glyph glyph-name="D" unicode="D" horiz-adv-x="740" 
d="M80 700h260q145 0 247.5 -102.5t102.5 -247.5t-102.5 -247.5t-247.5 -102.5h-260v700zM340 560h-120v-420h120q87 0 148.5 61.5t61.5 148.5t-61.5 148.5t-148.5 61.5z" />
    <glyph glyph-name="E" unicode="E" horiz-adv-x="630" 
d="M220 560v-140h330v-140h-330v-140h330v-140h-470v700h470v-140h-330z" />
    <glyph glyph-name="F" unicode="F" horiz-adv-x="600" 
d="M220 560v-140h310v-140h-310v-280h-140v700h450v-140h-310z" />
    <glyph glyph-name="G" unicode="G" horiz-adv-x="731" 
d="M190 350q0 -95 67.5 -162.5t162.5 -67.5q67 0 121 34v116h-211v140h351v-322q-108 -108 -261 -108t-261.5 108.5t-108.5 261.5t108.5 261.5t261.5 108.5q152 0 261 -109l-99 -99q-66 68 -162 68q-95 0 -162.5 -67.5t-67.5 -162.5z" />
    <glyph glyph-name="H" unicode="H" 
d="M550 0v280h-330v-280h-140v700h140v-280h330v280h140v-700h-140z" />
    <glyph glyph-name="I" unicode="I" horiz-adv-x="480" 
d="M420 0h-360v140h110v420h-110v140h360v-140h-110v-420h110v-140z" />
    <glyph glyph-name="J" unicode="J" horiz-adv-x="550" 
d="M340 200v500h140v-500q0 -91 -64.5 -155.5t-155.5 -64.5t-155.5 64.5t-64.5 155.5v50h140v-50q0 -33 23.5 -56.5t56.5 -23.5t56.5 23.5t23.5 56.5z" />
    <glyph glyph-name="K" unicode="K" horiz-adv-x="720" 
d="M680 700l-288 -325l318 -375h-183l-228 269l-79 -89v-180h-140v700h140v-310l273 310h187z" />
    <glyph glyph-name="L" unicode="L" horiz-adv-x="640" 
d="M220 700v-560h360v-140h-500v700h140z" />
    <glyph glyph-name="M" unicode="M" horiz-adv-x="840" 
d="M350 279l-130 180v-459h-140v700h140l200 -279l200 279h140v-700h-140v459l-130 -180h-140z" />
    <glyph glyph-name="N" unicode="N" 
d="M220 700l330 -460v460h140v-700h-140l-330 459v-459h-140v700h140z" />
    <glyph glyph-name="O" unicode="O" horiz-adv-x="840" 
d="M50 350q0 153 108.5 261.5t261.5 108.5t261.5 -108.5t108.5 -261.5t-108.5 -261.5t-261.5 -108.5t-261.5 108.5t-108.5 261.5zM190 350q0 -95 67.5 -162.5t162.5 -67.5t162.5 67.5t67.5 162.5t-67.5 162.5t-162.5 67.5t-162.5 -67.5t-67.5 -162.5z" />
    <glyph glyph-name="P" unicode="P" horiz-adv-x="620" 
d="M80 700h275q93 0 159 -66t66 -159t-66 -159t-159 -66h-135v-250h-140v700zM355 560h-135v-170h135q35 0 60 25t25 60t-25 60t-60 25z" />
    <glyph glyph-name="Q" unicode="Q" horiz-adv-x="840" 
d="M810 60l-100 -100l-84 83q-93 -63 -206 -63q-153 0 -261.5 108.5t-108.5 261.5t108.5 261.5t261.5 108.5t261.5 -108.5t108.5 -261.5q0 -113 -64 -207zM190 350q0 -95 67.5 -162.5t162.5 -67.5q55 0 105 25l-100 100l100 100l100 -100q25 48 25 105q0 95 -67.5 162.5
t-162.5 67.5t-162.5 -67.5t-67.5 -162.5z" />
    <glyph glyph-name="R" unicode="R" horiz-adv-x="630" 
d="M80 700h275q93 0 159 -66t66 -159q0 -68 -37.5 -124t-97.5 -83l155 -268h-163l-144 250h-73v-250h-140v700zM355 560h-135v-170h135q35 0 60 25t25 60t-25 60t-60 25z" />
    <glyph glyph-name="S" unicode="S" horiz-adv-x="537" 
d="M20 200h140q0 -33 23.5 -56.5t56.5 -23.5t56.5 23.5t23.5 56.5q0 23 -18 42.5t-45 32.5t-58.5 33t-58.5 42t-45 61t-18 89q0 91 64.5 155.5t155.5 64.5t155.5 -64.5t64.5 -155.5h-140q0 33 -23.5 56.5t-56.5 23.5t-56.5 -23.5t-23.5 -56.5q0 -23 18 -42.5t45 -32.5
t58.5 -33t58.5 -42t45 -61t18 -89q0 -91 -64.5 -155.5t-155.5 -64.5t-155.5 64.5t-64.5 155.5z" />
    <glyph glyph-name="T" unicode="T" horiz-adv-x="660" 
d="M30 700h600v-140h-230v-560h-140v560h-230v140z" />
    <glyph glyph-name="U" unicode="U" horiz-adv-x="710" 
d="M500 265v435h140v-435q0 -118 -83.5 -201.5t-201.5 -83.5t-201.5 83.5t-83.5 201.5v435h140v-435q0 -60 42.5 -102.5t102.5 -42.5t102.5 42.5t42.5 102.5z" />
    <glyph glyph-name="V" unicode="V" horiz-adv-x="724" 
d="M714 700l-282 -700h-140l-282 700h152l200 -499l201 499h151z" />
    <glyph glyph-name="W" unicode="W" horiz-adv-x="1004" 
d="M994 700l-282 -700h-140l-70 173l-70 -173h-140l-282 700h152l200 -499l64 160l-136 339h152l60 -151l61 151h151l-137 -339l65 -160l201 499h151z" />
    <glyph glyph-name="X" unicode="X" horiz-adv-x="680" 
d="M180 0h-170l245 350l-245 350h170l160 -229l160 229h170l-245 -350l245 -350h-170l-160 228z" />
    <glyph glyph-name="Y" unicode="Y" horiz-adv-x="680" 
d="M670 700l-260 -372v-328h-140v328l-260 372h170l160 -229l160 229h170z" />
    <glyph glyph-name="Z" unicode="Z" horiz-adv-x="680" 
d="M620 700v-140l-374 -420h374v-140h-560v140l373 420h-373v140h560z" />
    <glyph glyph-name="bracketleft" unicode="[" horiz-adv-x="400" 
d="M220 660v-720h140v-140h-280v1000h280v-140h-140z" />
    <glyph glyph-name="backslash" unicode="\" horiz-adv-x="641" 
d="M487 -200l-467 1000h154l467 -1000h-154z" />
    <glyph glyph-name="bracketright" unicode="]" horiz-adv-x="400" 
d="M180 -60v720h-140v140h280v-1000h-280v140h140z" />
    <glyph glyph-name="asciicircum" unicode="^" horiz-adv-x="556" 
d="M279 750l247 -248l-99 -99l-149 149l-149 -148l-99 99z" />
    <glyph glyph-name="underscore" unicode="_" 
d="M680 140v-140h-590v140h590z" />
    <glyph glyph-name="a" unicode="a" horiz-adv-x="640" 
d="M570 500v-500h-130v22q-63 -37 -135 -37q-109 0 -187 77.5t-78 187.5t78 187.5t187 77.5q73 0 135 -38v23h130zM440 250q0 56 -39.5 95.5t-95.5 39.5t-95.5 -39.5t-39.5 -95.5t39.5 -95.5t95.5 -39.5t95.5 39.5t39.5 95.5z" />
    <glyph glyph-name="b" unicode="b" horiz-adv-x="640" 
d="M70 0v700h130v-223q62 38 135 38q109 0 187 -77.5t78 -187.5t-78 -187.5t-187 -77.5q-72 0 -135 37v-22h-130zM200 250q0 -56 39.5 -95.5t95.5 -39.5t95.5 39.5t39.5 95.5t-39.5 95.5t-95.5 39.5t-95.5 -39.5t-39.5 -95.5z" />
    <glyph glyph-name="c" unicode="c" horiz-adv-x="532" 
d="M170 250q0 -56 39.5 -95.5t95.5 -39.5t95 39l92 -92q-77 -77 -187 -77q-109 0 -187 77.5t-78 187.5t78 187.5t187 77.5t187 -78l-92 -92q-38 40 -95 40q-56 0 -95.5 -39.5t-39.5 -95.5z" />
    <glyph glyph-name="d" unicode="d" horiz-adv-x="640" 
d="M570 700v-700h-130v22q-63 -37 -135 -37q-109 0 -187 77.5t-78 187.5t78 187.5t187 77.5q73 0 135 -38v223h130zM440 250q0 56 -39.5 95.5t-95.5 39.5t-95.5 -39.5t-39.5 -95.5t39.5 -95.5t95.5 -39.5t95.5 39.5t39.5 95.5z" />
    <glyph glyph-name="e" unicode="e" horiz-adv-x="575" 
d="M513 185h-327q18 -32 49.5 -51t69.5 -19q56 0 95 39l92 -92q-77 -77 -187 -77q-109 0 -187 77.5t-78 187.5t72 187.5t175 77.5q120 0 184 -65.5t64 -167.5q0 -50 -22 -97zM287 385q-33 0 -60.5 -19t-42.5 -51h215q-19 70 -112 70z" />
    <glyph glyph-name="f" unicode="f" horiz-adv-x="480" 
d="M250 500h200v-130h-160v-370h-130v370h-130v130h90q0 89 63 152t152 63t152 -63l-92 -92q-25 25 -60 25t-60 -25t-25 -60z" />
    <glyph glyph-name="g" unicode="g" horiz-adv-x="640" 
d="M570 500v-450q0 -110 -78 -187.5t-187 -77.5q-110 0 -188 78l92 92q38 -40 96 -40q48 0 85 30t47 76q-61 -36 -132 -36q-109 0 -187 77.5t-78 187.5t78 187.5t187 77.5q72 0 135 -37v22h130zM440 250q0 56 -39.5 95.5t-95.5 39.5t-95.5 -39.5t-39.5 -95.5t39.5 -95.5
t95.5 -39.5t95.5 39.5t39.5 95.5z" />
    <glyph glyph-name="h" unicode="h" horiz-adv-x="590" 
d="M200 700v-206q47 21 95 21q93 0 159 -66t66 -159v-290h-130v290q0 39 -28 67t-67 28q-38 0 -65.5 -26.5t-29.5 -64.5v-294h-130v700h130z" />
    <glyph glyph-name="i" unicode="i" horiz-adv-x="270" 
d="M70 0v500h130v-500h-130zM55 635q0 33 23.5 56.5t56.5 23.5t56.5 -23.5t23.5 -56.5t-23.5 -56.5t-56.5 -23.5t-56.5 23.5t-23.5 56.5z" />
    <glyph glyph-name="j" unicode="j" horiz-adv-x="270" 
d="M70 10v490h130v-490q0 -93 -66 -159t-159 -66v130q39 0 67 28t28 67zM55 635q0 33 23.5 56.5t56.5 23.5t56.5 -23.5t23.5 -56.5t-23.5 -56.5t-56.5 -23.5t-56.5 23.5t-23.5 56.5z" />
    <glyph glyph-name="k" unicode="k" horiz-adv-x="556" 
d="M392 0l-132 171l-60 -71v-100h-130v700h130v-397l166 197h170l-191 -228l211 -272h-164z" />
    <glyph glyph-name="l" unicode="l" horiz-adv-x="270" 
d="M70 0v700h130v-700h-130z" />
    <glyph glyph-name="m" unicode="m" horiz-adv-x="840" 
d="M490 305v-305h-130v305q0 33 -23.5 56.5t-56.5 23.5q-32 0 -55.5 -22.5t-24.5 -54.5v-308h-130v500h130v-1q38 16 80 16q83 0 145 -59q61 59 145 59q87 0 148.5 -61.5t61.5 -148.5v-305h-130v305q0 33 -23.5 56.5t-56.5 23.5t-56.5 -23.5t-23.5 -56.5z" />
    <glyph glyph-name="n" unicode="n" horiz-adv-x="590" 
d="M200 500v-6q47 21 95 21q93 0 159 -66t66 -159v-290h-130v290q0 39 -28 67t-67 28q-38 0 -65.5 -26.5t-29.5 -64.5v-294h-130v500h130z" />
    <glyph glyph-name="o" unicode="o" horiz-adv-x="610" 
d="M40 250q0 110 78 187.5t187 77.5t187 -77.5t78 -187.5t-78 -187.5t-187 -77.5t-187 77.5t-78 187.5zM170 250q0 -56 39.5 -95.5t95.5 -39.5t95.5 39.5t39.5 95.5t-39.5 95.5t-95.5 39.5t-95.5 -39.5t-39.5 -95.5z" />
    <glyph glyph-name="p" unicode="p" horiz-adv-x="640" 
d="M70 -200v700h130v-22q63 37 135 37q109 0 187 -77.5t78 -187.5t-78 -187.5t-187 -77.5q-73 0 -135 38v-223h-130zM200 250q0 -56 39.5 -95.5t95.5 -39.5t95.5 39.5t39.5 95.5t-39.5 95.5t-95.5 39.5t-95.5 -39.5t-39.5 -95.5z" />
    <glyph glyph-name="q" unicode="q" horiz-adv-x="640" 
d="M570 500v-700h-130v223q-62 -38 -135 -38q-109 0 -187 77.5t-78 187.5t78 187.5t187 77.5q72 0 135 -37v22h130zM440 250q0 56 -39.5 95.5t-95.5 39.5t-95.5 -39.5t-39.5 -95.5t39.5 -95.5t95.5 -39.5t95.5 39.5t39.5 95.5z" />
    <glyph glyph-name="r" unicode="r" horiz-adv-x="375" 
d="M200 250v-250h-130v500h130v-23q62 38 135 38v-130q-56 0 -95.5 -39.5t-39.5 -95.5z" />
    <glyph glyph-name="s" unicode="s" horiz-adv-x="412" 
d="M20 150h130q0 -14 10.5 -24.5t24.5 -10.5t24.5 10.5t10.5 24.5q0 16 -24.5 35t-54.5 37t-54.5 52t-24.5 76q0 68 48.5 116.5t116.5 48.5t116.5 -48.5t48.5 -116.5h-130q0 14 -10.5 24.5t-24.5 10.5t-24.5 -10.5t-10.5 -24.5q0 -16 24.5 -35t54.5 -37t54.5 -52t24.5 -76
q0 -68 -48.5 -116.5t-116.5 -48.5t-116.5 48.5t-48.5 116.5z" />
    <glyph glyph-name="t" unicode="t" horiz-adv-x="480" 
d="M30 370v130h130v140h130v-140h160v-130h-160v-160q0 -39 28 -67t67 -28v-130q-93 0 -159 66t-66 159v160h-130z" />
    <glyph glyph-name="u" unicode="u" horiz-adv-x="570" 
d="M380 210v290h130v-290q0 -93 -66 -159t-159 -66t-159 66t-66 159v290h130v-290q0 -39 28 -67t67 -28t67 28t28 67z" />
    <glyph glyph-name="v" unicode="v" horiz-adv-x="566" 
d="M218 0l-208 500h141l132 -318l132 318h141l-208 -500h-130z" />
    <glyph glyph-name="w" unicode="w" horiz-adv-x="793" 
d="M173 0l-163 500h136l92 -281l90 281h136l92 -281l90 281h137l-162 -500h-130l-95 289l-93 -289h-130z" />
    <glyph glyph-name="x" unicode="x" horiz-adv-x="570" 
d="M20 0l184 250l-184 250h161l104 -141l104 141h161l-185 -250l185 -250h-161l-104 141l-104 -141h-161z" />
    <glyph glyph-name="y" unicode="y" horiz-adv-x="584" 
d="M283 -200h-141l87 210l-219 490h143l145 -325l135 325h141z" />
    <glyph glyph-name="z" unicode="z" horiz-adv-x="556" 
d="M496 0h-436v130l249 240h-249v130h436v-130l-250 -240h250v-130z" />
    <glyph glyph-name="braceleft" unicode="{" horiz-adv-x="410" 
d="M280 150v-130q0 -33 23.5 -56.5t56.5 -23.5h20v-140h-20q-91 0 -155.5 64.5t-64.5 155.5v130q0 33 -23.5 56.5t-56.5 23.5h-20v140h20q33 0 56.5 23.5t23.5 56.5v130q0 91 64.5 155.5t155.5 64.5h20v-140h-20q-33 0 -56.5 -23.5t-23.5 -56.5v-130q0 -84 -59 -150
q59 -62 59 -150z" />
    <glyph glyph-name="bar" unicode="|" horiz-adv-x="300" 
d="M80 -200v1000h140v-1000h-140z" />
    <glyph glyph-name="braceright" unicode="}" horiz-adv-x="410" 
d="M130 20v130q0 88 59 150q-59 66 -59 150v130q0 33 -23.5 56.5t-56.5 23.5h-20v140h20q91 0 155.5 -64.5t64.5 -155.5v-130q0 -33 23.5 -56.5t56.5 -23.5h20v-140h-20q-33 0 -56.5 -23.5t-23.5 -56.5v-130q0 -91 -64.5 -155.5t-155.5 -64.5h-20v140h20q33 0 56.5 23.5
t23.5 56.5z" />
    <glyph glyph-name="asciitilde" unicode="~" horiz-adv-x="698" 
d="M344 405l85 -53q28 -18 60 -10.5t50 35.5l11 17l118 -75l-11 -17q-48 -77 -137 -97t-166 29l-85 53q-28 17 -60.5 10t-49.5 -35l-11 -17l-118 75l11 17q48 77 137 97t166 -29z" />
    <glyph glyph-name="currency" unicode="&#xa4;" horiz-adv-x="686" 
d="M50 148l80 80q-32 58 -32 122q0 63 32 121l-80 81l91 91l80 -81q57 33 122 33q64 0 121 -33l81 81l91 -91l-81 -81q33 -57 33 -121q0 -65 -33 -122l81 -80l-91 -91l-81 80q-58 -32 -121 -32q-64 0 -122 32l-80 -80zM238 350q0 -44 31 -74.5t74 -30.5t74 30.5t31 74.5
t-31 74.5t-74 30.5t-74 -30.5t-31 -74.5z" />
    <glyph glyph-name="brokenbar" unicode="&#xa6;" horiz-adv-x="300" 
d="M80 -200v440h140v-440h-140zM80 360v440h140v-440h-140z" />
    <glyph glyph-name="guillemotleft" unicode="&#xab;" horiz-adv-x="737" 
d="M60 320l248 248l99 -99l-149 -149l149 -149l-99 -99zM330 320l248 248l99 -99l-149 -149l149 -149l-99 -99z" />
    <glyph glyph-name="uni00AD" unicode="&#xad;" 
d="M680 420v-140h-590v140h590z" />
    <glyph glyph-name="degree" unicode="&#xb0;" horiz-adv-x="470" 
d="M40 555q0 81 57 138t138 57t138 -57t57 -138t-57 -138t-138 -57t-138 57t-57 138zM160 555q0 -31 22 -53t53 -22t53 22t22 53t-22 53t-53 22t-53 -22t-22 -53z" />
    <glyph glyph-name="plusminus" unicode="&#xb1;" 
d="M315 755h140v-215h225v-140h-225v-195h-140v195h-225v140h225v215zM680 140v-140h-590v140h590z" />
    <glyph glyph-name="paragraph" unicode="&#xb6;" horiz-adv-x="795" 
d="M505 -200v770h-70v-770h-130v370q-109 0 -187 78t-78 187t78 187t187 78h450v-130h-120v-770h-130z" />
    <glyph glyph-name="periodcentered" unicode="&#xb7;" horiz-adv-x="310" 
d="M70 350q0 35 25 60t60 25t60 -25t25 -60t-25 -60t-60 -25t-60 25t-25 60z" />
    <glyph glyph-name="guillemotright" unicode="&#xbb;" horiz-adv-x="737" 
d="M429 568l248 -248l-248 -248l-99 99l149 149l-149 149zM159 568l248 -248l-248 -248l-99 99l149 149l-149 149z" />
    <glyph glyph-name="afii10023" unicode="&#x401;" horiz-adv-x="630" 
d="M220 560v-140h330v-140h-330v-140h330v-140h-470v700h470v-140h-330zM110 840q0 35 25 60t60 25t60 -25t25 -60t-25 -60t-60 -25t-60 25t-25 60zM350 840q0 35 25 60t60 25t60 -25t25 -60t-25 -60t-60 -25t-60 25t-25 60z" />
    <glyph glyph-name="afii10017" unicode="&#x410;" horiz-adv-x="724" 
d="M10 0l282 700h140l282 -700h-152l-60 150h-281l-60 -150h-151zM362 499l-84 -209h168z" />
    <glyph glyph-name="afii10018" unicode="&#x411;" horiz-adv-x="620" 
d="M355 0h-275v700h460v-140h-320v-110h135q93 0 159 -66t66 -159t-66 -159t-159 -66zM220 140h135q35 0 60 25t25 60t-25 60t-60 25h-135v-170z" />
    <glyph glyph-name="afii10019" unicode="&#x412;" horiz-adv-x="610" 
d="M355 290h-135v-150h135q31 0 53 22t22 53t-22 53t-53 22zM355 560h-135v-130h135q27 0 46 19t19 46t-19 46t-46 19zM388 0h-308v700h311q70 0 119.5 -49.5t49.5 -119.5q0 -69 -48.5 -117.5t-116.5 -50.5q73 -3 124 -56t51 -126q0 -75 -53.5 -128t-128.5 -53z" />
    <glyph glyph-name="afii10020" unicode="&#x413;" horiz-adv-x="590" 
d="M220 560v-560h-140v700h470v-140h-330z" />
    <glyph glyph-name="afii10021" unicode="&#x414;" horiz-adv-x="777" 
d="M10 -150v290h90l407 560h140v-560h120v-290h-140v150h-477v-150h-140zM507 140v322l-234 -322h234z" />
    <glyph glyph-name="afii10022" unicode="&#x415;" horiz-adv-x="630" 
d="M220 560v-140h330v-140h-330v-140h330v-140h-470v700h470v-140h-330z" />
    <glyph glyph-name="afii10024" unicode="&#x416;" horiz-adv-x="916" 
d="M265 350l-245 350h172l196 -280v280h140v-280l196 280h172l-245 -350l245 -350h-172l-196 280v-280h-140v280l-196 -280h-172z" />
    <glyph glyph-name="afii10025" unicode="&#x417;" horiz-adv-x="520" 
d="M180 500h-140q0 91 64.5 155.5t155.5 64.5t155.5 -64.5t64.5 -155.5q0 -87 -60 -150q60 -65 60 -150q0 -91 -64.5 -155.5t-155.5 -64.5t-155.5 64.5t-64.5 155.5h140q0 -33 23.5 -56.5t56.5 -23.5t56.5 23.5t23.5 56.5t-23.5 56.5t-56.5 23.5h-60v140h60q33 0 56.5 23.5
t23.5 56.5t-23.5 56.5t-56.5 23.5t-56.5 -23.5t-23.5 -56.5z" />
    <glyph glyph-name="afii10026" unicode="&#x418;" 
d="M550 460l-330 -460h-140v700h140v-459l330 459h140v-700h-140v460z" />
    <glyph glyph-name="afii10027" unicode="&#x419;" 
d="M220 0l330 460v-460h140v700h-140l-330 -459v459h-140v-700h140zM430 915v10h140v-10q0 -81 -57 -138t-138 -57t-138 57t-57 138v10h140v-10q0 -23 16 -39t39 -16t39 16t16 39z" />
    <glyph glyph-name="afii10028" unicode="&#x41a;" horiz-adv-x="668" 
d="M648 700l-294 -350l294 -350h-182l-246 292v-292h-140v700h140v-292l246 292h182z" />
    <glyph glyph-name="afii10029" unicode="&#x41b;" horiz-adv-x="724" 
d="M10 0l282 700h140l282 -700h-152l-200 499l-201 -499h-151z" />
    <glyph glyph-name="afii10030" unicode="&#x41c;" horiz-adv-x="840" 
d="M350 279l-130 180v-459h-140v700h140l200 -279l200 279h140v-700h-140v459l-130 -180h-140z" />
    <glyph glyph-name="afii10031" unicode="&#x41d;" 
d="M550 0v280h-330v-280h-140v700h140v-280h330v280h140v-700h-140z" />
    <glyph glyph-name="afii10032" unicode="&#x41e;" horiz-adv-x="840" 
d="M50 350q0 153 108.5 261.5t261.5 108.5t261.5 -108.5t108.5 -261.5t-108.5 -261.5t-261.5 -108.5t-261.5 108.5t-108.5 261.5zM190 350q0 -95 67.5 -162.5t162.5 -67.5t162.5 67.5t67.5 162.5t-67.5 162.5t-162.5 67.5t-162.5 -67.5t-67.5 -162.5z" />
    <glyph glyph-name="afii10033" unicode="&#x41f;" horiz-adv-x="740" 
d="M520 0v560h-300v-560h-140v700h580v-700h-140z" />
    <glyph glyph-name="afii10034" unicode="&#x420;" horiz-adv-x="620" 
d="M80 700h275q93 0 159 -66t66 -159t-66 -159t-159 -66h-135v-250h-140v700zM355 560h-135v-170h135q35 0 60 25t25 60t-25 60t-60 25z" />
    <glyph glyph-name="afii10035" unicode="&#x421;" horiz-adv-x="731" 
d="M190 350q0 -95 67.5 -162.5t162.5 -67.5t162 67l99 -99q-108 -108 -261 -108t-261.5 108.5t-108.5 261.5t108.5 261.5t261.5 108.5q152 0 261 -109l-99 -99q-66 68 -162 68q-95 0 -162.5 -67.5t-67.5 -162.5z" />
    <glyph glyph-name="afii10036" unicode="&#x422;" horiz-adv-x="660" 
d="M30 700h600v-140h-230v-560h-140v560h-230v140z" />
    <glyph glyph-name="afii10037" unicode="&#x423;" horiz-adv-x="772" 
d="M212 0l128 229l-330 471h171l235 -334l186 334h160l-390 -700h-160z" />
    <glyph glyph-name="afii10038" unicode="&#x424;" horiz-adv-x="800" 
d="M330 75h-15q-114 0 -194.5 80.5t-80.5 194.5t80.5 194.5t194.5 80.5h15v75h140v-75h15q114 0 194.5 -80.5t80.5 -194.5t-80.5 -194.5t-194.5 -80.5h-15v-75h-140v75zM485 485h-15v-270h15q56 0 95.5 39.5t39.5 95.5t-39.5 95.5t-95.5 39.5zM180 350q0 -56 39.5 -95.5
t95.5 -39.5h15v270h-15q-56 0 -95.5 -39.5t-39.5 -95.5z" />
    <glyph glyph-name="afii10039" unicode="&#x425;" horiz-adv-x="680" 
d="M180 0h-170l245 350l-245 350h170l160 -229l160 229h170l-245 -350l245 -350h-170l-160 228z" />
    <glyph glyph-name="afii10040" unicode="&#x426;" horiz-adv-x="790" 
d="M80 0v700h140v-560h300v560h140v-560h120v-290h-140v150h-560z" />
    <glyph glyph-name="afii10041" unicode="&#x427;" horiz-adv-x="650" 
d="M200 700v-220q0 -52 36.5 -88.5t88.5 -36.5t88.5 36.5t36.5 88.5v220h130v-700h-130v257q-59 -32 -125 -32q-106 0 -180.5 74.5t-74.5 180.5v220h130z" />
    <glyph glyph-name="afii10042" unicode="&#x428;" horiz-adv-x="940" 
d="M80 0v700h140v-560h180v560h140v-560h180v560h140v-700h-780z" />
    <glyph glyph-name="afii10043" unicode="&#x429;" horiz-adv-x="990" 
d="M80 0v700h140v-560h180v560h140v-560h180v560h140v-560h120v-290h-140v150h-760z" />
    <glyph glyph-name="afii10044" unicode="&#x42a;" horiz-adv-x="750" 
d="M210 0v560h-180v140h320v-250h135q93 0 159 -66t66 -159t-66 -159t-159 -66h-275zM350 140h135q35 0 60 25t25 60t-25 60t-60 25h-135v-170z" />
    <glyph glyph-name="afii10045" unicode="&#x42b;" horiz-adv-x="890" 
d="M355 0h-275v700h140v-250h135q93 0 159 -66t66 -159t-66 -159t-159 -66zM220 140h135q35 0 60 25t25 60t-25 60t-60 25h-135v-170zM810 700v-700h-140v700h140z" />
    <glyph glyph-name="afii10046" unicode="&#x42c;" horiz-adv-x="620" 
d="M355 0h-275v700h140v-250h135q93 0 159 -66t66 -159t-66 -159t-159 -66zM220 140h135q35 0 60 25t25 60t-25 60t-60 25h-135v-170z" />
    <glyph glyph-name="afii10047" unicode="&#x42d;" horiz-adv-x="731" 
d="M311 120q76 0 136 44.5t83 115.5h-290v140h290q-23 70 -83.5 115t-135.5 45q-95 0 -162 -67l-99 99q108 108 261 108t261.5 -108.5t108.5 -261.5t-108.5 -261.5t-261.5 -108.5q-152 0 -261 109l99 99q66 -68 162 -68z" />
    <glyph glyph-name="afii10048" unicode="&#x42e;" horiz-adv-x="1140" 
d="M220 700v-280h136q25 129 127.5 214.5t236.5 85.5q153 0 261.5 -108.5t108.5 -261.5t-108.5 -261.5t-261.5 -108.5q-134 0 -236.5 85.5t-127.5 214.5h-136v-280h-140v700h140zM490 350q0 -95 67.5 -162.5t162.5 -67.5t162.5 67.5t67.5 162.5t-67.5 162.5t-162.5 67.5
t-162.5 -67.5t-67.5 -162.5z" />
    <glyph glyph-name="afii10049" unicode="&#x42f;" horiz-adv-x="630" 
d="M275 700h275v-700h-140v250h-73l-144 -250h-163l155 268q-60 27 -97.5 83t-37.5 124q0 93 66 159t159 66zM410 560h-135q-35 0 -60 -25t-25 -60t25 -60t60 -25h135v170z" />
    <glyph glyph-name="afii10065" unicode="&#x430;" horiz-adv-x="640" 
d="M570 500v-500h-130v22q-63 -37 -135 -37q-109 0 -187 77.5t-78 187.5t78 187.5t187 77.5q73 0 135 -38v23h130zM440 250q0 56 -39.5 95.5t-95.5 39.5t-95.5 -39.5t-39.5 -95.5t39.5 -95.5t95.5 -39.5t95.5 39.5t39.5 95.5z" />
    <glyph glyph-name="afii10066" unicode="&#x431;" horiz-adv-x="610" 
d="M551 700v-130h-349l36 -64q33 9 67 9q109 0 187 -77.5t78 -187.5t-78 -187.5t-187 -77.5t-187 77.5t-78 187.5q0 115 84 193l-72 127v130h499zM170 250q0 -56 39.5 -95.5t95.5 -39.5t95.5 39.5t39.5 95.5t-39.5 95.5t-95.5 39.5t-95.5 -39.5t-39.5 -95.5z" />
    <glyph glyph-name="afii10067" unicode="&#x432;" horiz-adv-x="520" 
d="M322 0h-252v500h242q65 0 111.5 -46.5t46.5 -111.5q0 -47 -26 -86q36 -44 36 -99q0 -65 -46.5 -111t-111.5 -46zM322 185h-122v-55h122q11 0 19.5 8t8.5 19t-8.5 19.5t-19.5 8.5zM200 315h112q11 0 19.5 8t8.5 19t-8.5 19.5t-19.5 8.5h-112v-55z" />
    <glyph glyph-name="afii10068" unicode="&#x433;" horiz-adv-x="470" 
d="M440 500v-130h-240v-370h-130v500h370z" />
    <glyph glyph-name="afii10069" unicode="&#x434;" horiz-adv-x="590" 
d="M150 0v-120h-130v250h71l269 370h130v-370h90v-250h-130v120h-300zM252 130h108v149z" />
    <glyph glyph-name="afii10070" unicode="&#x435;" horiz-adv-x="575" 
d="M513 185h-327q18 -32 49.5 -51t69.5 -19q56 0 95 39l92 -92q-77 -77 -187 -77q-109 0 -187 77.5t-78 187.5t72 187.5t175 77.5q120 0 184 -65.5t64 -167.5q0 -50 -22 -97zM287 385q-33 0 -60.5 -19t-42.5 -51h215q-19 70 -112 70z" />
    <glyph glyph-name="afii10072" unicode="&#x436;" horiz-adv-x="758" 
d="M195 250l-175 250h158l136 -193v193h130v-193l136 193h158l-175 -250l175 -250h-158l-136 193v-193h-130v193l-136 -193h-158z" />
    <glyph glyph-name="afii10073" unicode="&#x437;" horiz-adv-x="520" 
d="M174 300h-130q0 89 63 152t152 63t152 -63t63 -152t-61 -150q61 -63 61 -150q0 -89 -63 -152t-152 -63t-152 63t-63 152h130q0 -35 25 -60t60 -25t60 25t25 60t-25 60t-60 25h-60v130h60q35 0 60 25t25 60t-25 60t-60 25t-60 -25t-25 -60z" />
    <glyph glyph-name="afii10074" unicode="&#x438;" horiz-adv-x="590" 
d="M390 0v272l-190 -272h-130v500h130v-272l190 272h130v-500h-130z" />
    <glyph glyph-name="afii10075" unicode="&#x439;" horiz-adv-x="590" 
d="M390 0v272l-190 -272h-130v500h130v-272l190 272h130v-500h-130zM325 690v10h130v-10q0 -68 -48.5 -116.5t-116.5 -48.5t-116.5 48.5t-48.5 116.5v10h130v-10q0 -14 10.5 -24.5t24.5 -10.5t24.5 10.5t10.5 24.5z" />
    <glyph glyph-name="afii10076" unicode="&#x43a;" horiz-adv-x="556" 
d="M536 500l-210 -250l210 -250h-170l-166 196v-196h-130v500h130v-197l166 197h170z" />
    <glyph glyph-name="afii10077" unicode="&#x43b;" horiz-adv-x="566" 
d="M348 500l208 -500h-141l-132 318l-132 -318h-141l208 500h130z" />
    <glyph glyph-name="afii10078" unicode="&#x43c;" horiz-adv-x="686" 
d="M222 500l121 -204l121 204h152v-500h-130v281l-78 -131h-130l-78 131v-281h-130v500h152z" />
    <glyph glyph-name="afii10079" unicode="&#x43d;" horiz-adv-x="590" 
d="M390 0v185h-190v-185h-130v500h130v-185h190v185h130v-500h-130z" />
    <glyph glyph-name="afii10080" unicode="&#x43e;" horiz-adv-x="610" 
d="M40 250q0 110 78 187.5t187 77.5t187 -77.5t78 -187.5t-78 -187.5t-187 -77.5t-187 77.5t-78 187.5zM170 250q0 -56 39.5 -95.5t95.5 -39.5t95.5 39.5t39.5 95.5t-39.5 95.5t-95.5 39.5t-95.5 -39.5t-39.5 -95.5z" />
    <glyph glyph-name="afii10081" unicode="&#x43f;" horiz-adv-x="590" 
d="M390 0v370h-190v-370h-130v500h450v-500h-130z" />
    <glyph glyph-name="afii10082" unicode="&#x440;" horiz-adv-x="640" 
d="M70 -200v700h130v-22q63 37 135 37q109 0 187 -77.5t78 -187.5t-78 -187.5t-187 -77.5q-73 0 -135 38v-223h-130zM200 250q0 -56 39.5 -95.5t95.5 -39.5t95.5 39.5t39.5 95.5t-39.5 95.5t-95.5 39.5t-95.5 -39.5t-39.5 -95.5z" />
    <glyph glyph-name="afii10083" unicode="&#x441;" horiz-adv-x="532" 
d="M170 250q0 -56 39.5 -95.5t95.5 -39.5t95 39l92 -92q-77 -77 -187 -77q-109 0 -187 77.5t-78 187.5t78 187.5t187 77.5t187 -78l-92 -92q-38 40 -95 40q-56 0 -95.5 -39.5t-39.5 -95.5z" />
    <glyph glyph-name="afii10084" unicode="&#x442;" horiz-adv-x="510" 
d="M30 370v130h450v-130h-160v-370h-130v370h-160z" />
    <glyph glyph-name="afii10085" unicode="&#x443;" horiz-adv-x="584" 
d="M283 -200h-141l87 210l-219 490h143l145 -325l135 325h141z" />
    <glyph glyph-name="afii10086" unicode="&#x444;" horiz-adv-x="750" 
d="M440 700v-200h5q111 0 188 -71t77 -179t-77 -179t-188 -71h-5v-200h-130v200h-5q-111 0 -188 71t-77 179t77 179t188 71h5v200h130zM310 370h-5q-58 0 -96.5 -32.5t-38.5 -87.5t38.5 -87.5t96.5 -32.5h5v240zM445 370h-5v-240h5q58 0 96.5 32.5t38.5 87.5t-38.5 87.5
t-96.5 32.5z" />
    <glyph glyph-name="afii10087" unicode="&#x445;" horiz-adv-x="570" 
d="M20 0l184 250l-184 250h161l104 -141l104 141h161l-185 -250l185 -250h-161l-104 141l-104 -141h-161z" />
    <glyph glyph-name="afii10088" unicode="&#x446;" horiz-adv-x="620" 
d="M610 -120h-130v120h-410v500h130v-370h190v370h130v-370h90v-250z" />
    <glyph glyph-name="afii10089" unicode="&#x447;" horiz-adv-x="590" 
d="M390 0v156q-47 -21 -95 -21q-93 0 -159 66t-66 159v140h130v-140q0 -39 28 -67t67 -28q38 0 65.5 26.5t29.5 64.5v144h130v-500h-130z" />
    <glyph glyph-name="afii10090" unicode="&#x448;" 
d="M450 500v-370h120v370h130v-500h-630v500h130v-370h120v370h130z" />
    <glyph glyph-name="afii10091" unicode="&#x449;" horiz-adv-x="800" 
d="M790 -120h-130v120h-590v500h130v-370h120v370h130v-370h120v370h130v-370h90v-250z" />
    <glyph glyph-name="afii10092" unicode="&#x44a;" horiz-adv-x="580" 
d="M280 500v-145h92q74 0 126 -52.5t52 -125.5t-52 -125t-126 -52h-222v370h-120v130h250zM280 130h92q20 0 34 14t14 33t-14 33.5t-34 14.5h-92v-95z" />
    <glyph glyph-name="afii10093" unicode="&#x44b;" horiz-adv-x="730" 
d="M292 0h-222v500h130v-145h92q74 0 126 -52.5t52 -125.5t-52 -125t-126 -52zM200 130h92q20 0 34 14t14 33t-14 33.5t-34 14.5h-92v-95zM660 500v-500h-130v500h130z" />
    <glyph glyph-name="afii10094" unicode="&#x44c;" horiz-adv-x="500" 
d="M292 0h-222v500h130v-145h92q74 0 126 -52.5t52 -125.5t-52 -125t-126 -52zM200 130h92q20 0 34 14t14 33t-14 33.5t-34 14.5h-92v-95z" />
    <glyph glyph-name="afii10095" unicode="&#x44d;" horiz-adv-x="532" 
d="M227 115q38 0 69 19t49 51h-175v130h175q-18 32 -49 51t-69 19q-56 0 -95 -39l-92 92q77 77 187 77q109 0 187 -77.5t78 -187.5t-78 -187.5t-187 -77.5t-187 78l92 92q38 -40 95 -40z" />
    <glyph glyph-name="afii10096" unicode="&#x44e;" horiz-adv-x="830" 
d="M200 500v-185h68q22 87 93.5 143.5t163.5 56.5q109 0 187 -77.5t78 -187.5t-78 -187.5t-187 -77.5q-92 0 -163.5 56.5t-93.5 143.5h-68v-185h-130v500h130zM390 250q0 -56 39.5 -95.5t95.5 -39.5t95.5 39.5t39.5 95.5t-39.5 95.5t-95.5 39.5t-95.5 -39.5t-39.5 -95.5z
" />
    <glyph glyph-name="afii10097" unicode="&#x44f;" horiz-adv-x="500" 
d="M208 500h222v-500h-130v145h-37l-83 -145h-150l95 165q-43 23 -69 65.5t-26 92.5q0 73 52 125t126 52zM300 370h-92q-20 0 -34 -14t-14 -33t14 -33.5t34 -14.5h92v95z" />
    <glyph glyph-name="afii10071" unicode="&#x451;" horiz-adv-x="575" 
d="M94 635q0 33 23.5 56.5t56.5 23.5t56.5 -23.5t23.5 -56.5t-23.5 -56.5t-56.5 -23.5t-56.5 23.5t-23.5 56.5zM324 635q0 33 23.5 56.5t56.5 23.5t56.5 -23.5t23.5 -56.5t-23.5 -56.5t-56.5 -23.5t-56.5 23.5t-23.5 56.5zM513 185h-327q18 -32 49.5 -51t69.5 -19
q56 0 95 39l92 -92q-77 -77 -187 -77q-109 0 -187 77.5t-78 187.5t72 187.5t175 77.5q120 0 184 -65.5t64 -167.5q0 -50 -22 -97zM287 385q-33 0 -60.5 -19t-42.5 -51h215q-19 70 -112 70z" />
    <glyph glyph-name="endash" unicode="&#x2013;" 
d="M680 390v-140h-590v140h590z" />
    <glyph glyph-name="emdash" unicode="&#x2014;" horiz-adv-x="790" 
d="M790 390v-140h-790v140h790z" />
    <glyph glyph-name="quoteleft" unicode="&#x2018;" horiz-adv-x="310" 
d="M155 445q-37 0 -61 25t-24 70q0 67 35.5 125t83.5 85q-34 -38 -34 -135q35 0 60 -25t25 -60t-25 -60t-60 -25z" />
    <glyph glyph-name="quoteright" unicode="&#x2019;" horiz-adv-x="310" 
d="M155 720q37 0 61 -25t24 -70q0 -67 -35.5 -125t-83.5 -85q34 38 34 135q-35 0 -60 25t-25 60t25 60t60 25z" />
    <glyph glyph-name="quotesinglbase" unicode="&#x201a;" horiz-adv-x="310" 
d="M155 155q37 0 61 -25t24 -70q0 -67 -35.5 -125t-83.5 -85q34 38 34 135q-35 0 -60 25t-25 60t25 60t60 25z" />
    <glyph glyph-name="quotedblleft" unicode="&#x201c;" horiz-adv-x="510" 
d="M355 445q-37 0 -61 25t-24 70q0 67 35.5 125t83.5 85q-34 -38 -34 -135q35 0 60 -25t25 -60t-25 -60t-60 -25zM155 445q-37 0 -61 25t-24 70q0 67 35.5 125t83.5 85q-34 -38 -34 -135q35 0 60 -25t25 -60t-25 -60t-60 -25z" />
    <glyph glyph-name="quotedblright" unicode="&#x201d;" horiz-adv-x="510" 
d="M155 720q37 0 61 -25t24 -70q0 -67 -35.5 -125t-83.5 -85q34 38 34 135q-35 0 -60 25t-25 60t25 60t60 25zM355 720q37 0 61 -25t24 -70q0 -67 -35.5 -125t-83.5 -85q34 38 34 135q-35 0 -60 25t-25 60t25 60t60 25z" />
    <glyph glyph-name="quotedblbase" unicode="&#x201e;" horiz-adv-x="510" 
d="M155 155q37 0 61 -25t24 -70q0 -67 -35.5 -125t-83.5 -85q34 38 34 135q-35 0 -60 25t-25 60t25 60t60 25zM355 155q37 0 61 -25t24 -70q0 -67 -35.5 -125t-83.5 -85q34 38 34 135q-35 0 -60 25t-25 60t25 60t60 25z" />
    <glyph glyph-name="dagger" unicode="&#x2020;" horiz-adv-x="470" 
d="M165 760h140v-120h125v-140h-125v-260h-140v260h-125v140h125v120z" />
    <glyph glyph-name="daggerdbl" unicode="&#x2021;" horiz-adv-x="470" 
d="M165 760h140v-120h125v-140h-125v-70h125v-140h-125v-180h-140v180h-125v140h125v70h-125v140h125v120z" />
    <glyph glyph-name="bullet" unicode="&#x2022;" horiz-adv-x="310" 
d="M70 350q0 35 25 60t60 25t60 -25t25 -60t-25 -60t-60 -25t-60 25t-25 60z" />
    <glyph glyph-name="ellipsis" unicode="&#x2026;" horiz-adv-x="780" 
d="M70 70q0 35 25 60t60 25t60 -25t25 -60t-25 -60t-60 -25t-60 25t-25 60zM310 70q0 35 25 60t60 25t60 -25t25 -60t-25 -60t-60 -25t-60 25t-25 60zM540 70q0 35 25 60t60 25t60 -25t25 -60t-25 -60t-60 -25t-60 25t-25 60z" />
    <glyph glyph-name="perthousand" unicode="&#x2030;" horiz-adv-x="1411" 
d="M726 700l-326 -700h-154l326 700h154zM30 525q0 81 57 138t138 57t138 -57t57 -138t-57 -138t-138 -57t-138 57t-57 138zM150 525q0 -31 22 -53t53 -22t53 22t22 53t-22 53t-53 22t-53 -22t-22 -53zM561 195q0 81 57 138t138 57t138 -57t57 -138t-57 -138t-138 -57
t-138 57t-57 138zM681 195q0 -31 22 -53t53 -22t53 22t22 53t-22 53t-53 22t-53 -22t-22 -53zM1001 195q0 81 57 138t138 57t138 -57t57 -138t-57 -138t-138 -57t-138 57t-57 138zM1121 195q0 -31 22 -53t53 -22t53 22t22 53t-22 53t-53 22t-53 -22t-22 -53z" />
    <glyph glyph-name="guilsinglleft" unicode="&#x2039;" horiz-adv-x="467" 
d="M60 320l248 248l99 -99l-149 -149l149 -149l-99 -99z" />
    <glyph glyph-name="guilsinglright" unicode="&#x203a;" horiz-adv-x="467" 
d="M159 568l248 -248l-248 -248l-99 99l149 149l-149 149z" />
    <glyph glyph-name="Euro" unicode="&#x20ac;" horiz-adv-x="851" 
d="M570 510v-140h-259q-1 -7 -1 -20q0 -14 1 -20h259v-140h-195q68 -70 165 -70q95 0 162 67l99 -99q-108 -108 -261 -108q-109 0 -198.5 57.5t-135.5 152.5h-166v140h130v40h-130v140h166q46 95 135.5 152.5t198.5 57.5q152 0 261 -109l-99 -99q-66 68 -162 68
q-97 0 -165 -70h195z" />
    <glyph glyph-name="afii61352" unicode="&#x2116;" horiz-adv-x="1180" 
d="M220 700l330 -460v460h140v-700h-140l-330 459v-459h-140v700h140zM750 525q0 81 57 138t138 57t138 -57t57 -138t-57 -138t-138 -57t-138 57t-57 138zM870 525q0 -31 22 -53t53 -22t53 22t22 53t-22 53t-53 22t-53 -22t-22 -53zM1140 275v-120h-390v120h390z" />
    <glyph glyph-name="CR" horiz-adv-x="280" 
 />
    <glyph glyph-name="percent" horiz-adv-x="981" 
d="M726 700l-326 -700h-154l326 700h154zM30 525q0 81 57 138t138 57t138 -57t57 -138t-57 -138t-138 -57t-138 57t-57 138zM150 525q0 -31 22 -53t53 -22t53 22t22 53t-22 53t-53 22t-53 -22t-22 -53zM561 195q0 81 57 138t138 57t138 -57t57 -138t-57 -138t-138 -57
t-138 57t-57 138zM681 195q0 -31 22 -53t53 -22t53 22t22 53t-22 53t-53 22t-53 -22t-22 -53z" />
  </font>
</defs>
</svg>
